<svg width="20" height="20" viewBox="0 0 20 20" fill="none" xmlns="http://www.w3.org/2000/svg">
<path d="M15.073 3.787C14.8475 3.787 14.6271 3.85386 14.4396 3.97912C14.2522 4.10439 14.1061 4.28243 14.0198 4.49074C13.9335 4.69905 13.9109 4.92826 13.9549 5.1494C13.9989 5.37054 14.1075 5.57367 14.2669 5.7331C14.4263 5.89253 14.6295 6.00111 14.8506 6.0451C15.0717 6.08908 15.301 6.06651 15.5093 5.98022C15.7176 5.89394 15.8956 5.74782 16.0209 5.56035C16.1461 5.37288 16.213 5.15247 16.213 4.927C16.213 4.62465 16.0929 4.33469 15.8791 4.1209C15.6653 3.90711 15.3753 3.787 15.073 3.787V3.787ZM19.443 6.086C19.4245 5.29778 19.2769 4.51793 19.006 3.7775C18.7644 3.14398 18.3885 2.57031 17.904 2.096C17.4336 1.60905 16.8586 1.23547 16.2225 1.0035C15.484 0.724353 14.7033 0.573349 13.914 0.557C12.907 0.5 12.584 0.5 10 0.5C7.416 0.5 7.093 0.5 6.086 0.557C5.29669 0.573349 4.51598 0.724353 3.7775 1.0035C3.14259 1.23782 2.56809 1.61108 2.096 2.096C1.60905 2.56642 1.23547 3.14142 1.0035 3.7775C0.724353 4.51598 0.573349 5.29669 0.557 6.086C0.5 7.093 0.5 7.416 0.5 10C0.5 12.584 0.5 12.907 0.557 13.914C0.573349 14.7033 0.724353 15.484 1.0035 16.2225C1.23547 16.8586 1.60905 17.4336 2.096 17.904C2.56809 18.3889 3.14259 18.7622 3.7775 18.9965C4.51598 19.2756 5.29669 19.4267 6.086 19.443C7.093 19.5 7.416 19.5 10 19.5C12.584 19.5 12.907 19.5 13.914 19.443C14.7033 19.4267 15.484 19.2756 16.2225 18.9965C16.8586 18.7645 17.4336 18.3909 17.904 17.904C18.3906 17.4315 18.7669 16.8573 19.006 16.2225C19.2769 15.4821 19.4245 14.7022 19.443 13.914C19.443 12.907 19.5 12.584 19.5 10C19.5 7.416 19.5 7.093 19.443 6.086V6.086ZM17.733 13.8C17.7261 14.403 17.6169 15.0005 17.41 15.567C17.2583 15.9804 17.0147 16.354 16.6975 16.6595C16.3894 16.9735 16.0166 17.2166 15.605 17.372C15.0385 17.5789 14.441 17.6881 13.838 17.695C12.888 17.7425 12.5365 17.752 10.038 17.752C7.5395 17.752 7.188 17.752 6.238 17.695C5.61185 17.7067 4.98836 17.6103 4.395 17.41C4.00149 17.2467 3.64579 17.0041 3.35 16.6975C3.03468 16.3923 2.7941 16.0184 2.647 15.605C2.41506 15.0304 2.28642 14.4193 2.267 13.8C2.267 12.85 2.21 12.4985 2.21 10C2.21 7.5015 2.21 7.15 2.267 6.2C2.27126 5.5835 2.3838 4.97255 2.5995 4.395C2.76674 3.99402 3.02345 3.63658 3.35 3.35C3.63862 3.02336 3.99532 2.76394 4.395 2.59C4.97407 2.38104 5.5844 2.27183 6.2 2.267C7.15 2.267 7.5015 2.21 10 2.21C12.4985 2.21 12.85 2.21 13.8 2.267C14.403 2.27392 15.0005 2.38313 15.567 2.59C15.9987 2.75022 16.3862 3.0107 16.6975 3.35C17.0088 3.64182 17.2521 3.9986 17.41 4.395C17.6211 4.97349 17.7304 5.58419 17.733 6.2C17.7805 7.15 17.79 7.5015 17.79 10C17.79 12.4985 17.7805 12.85 17.733 13.8ZM10 5.1265C9.03652 5.12838 8.09521 5.4158 7.29502 5.95245C6.49483 6.48909 5.87166 7.25089 5.50425 8.14157C5.13684 9.03225 5.04169 10.0118 5.2308 10.9566C5.41992 11.9013 5.88482 12.7688 6.56677 13.4494C7.24872 14.1301 8.11711 14.5933 9.06222 14.7805C10.0073 14.9678 10.9867 14.8708 11.8767 14.5016C12.7667 14.1325 13.5272 13.5078 14.0623 12.7066C14.5974 11.9053 14.883 10.9635 14.883 10C14.8843 9.35885 14.7587 8.72378 14.5137 8.13131C14.2686 7.53884 13.9088 7.00067 13.455 6.54775C13.0012 6.09483 12.4624 5.73609 11.8694 5.49218C11.2765 5.24827 10.6411 5.12399 10 5.1265V5.1265ZM10 13.1635C9.37432 13.1635 8.76269 12.978 8.24245 12.6304C7.72222 12.2827 7.31674 11.7887 7.07731 11.2106C6.83787 10.6326 6.77522 9.99649 6.89729 9.38283C7.01935 8.76917 7.32064 8.20549 7.76307 7.76307C8.20549 7.32064 8.76917 7.01935 9.38283 6.89729C9.99649 6.77522 10.6326 6.83787 11.2106 7.07731C11.7887 7.31674 12.2827 7.72222 12.6304 8.24245C12.978 8.76269 13.1635 9.37432 13.1635 10C13.1635 10.4154 13.0817 10.8268 12.9227 11.2106C12.7637 11.5944 12.5307 11.9432 12.2369 12.2369C11.9432 12.5307 11.5944 12.7637 11.2106 12.9227C10.8268 13.0817 10.4154 13.1635 10 13.1635V13.1635Z" fill="#F9F8F8"/>
</svg>
