<svg width="22" height="18" viewBox="0 0 22 18" fill="none" xmlns="http://www.w3.org/2000/svg">
<path d="M21.0833 2.14701C20.3244 2.49625 19.5131 2.7321 18.6582 2.84095C19.5305 2.29668 20.2022 1.43492 20.5163 0.409875C19.7006 0.913326 18.7977 1.28071 17.8338 1.47574C17.0618 0.618513 15.9626 0.083313 14.75 0.083313C12.4164 0.083313 10.5278 2.05176 10.5278 4.4783C10.5278 4.823 10.5627 5.15864 10.6368 5.48067C7.12557 5.29924 4.01125 3.5485 1.93067 0.886112C1.56864 1.5347 1.35927 2.29215 1.35927 3.09494C1.35927 4.6189 2.1095 5.96597 3.24357 6.75517C2.54568 6.73702 1.89141 6.53746 1.32438 6.20636V6.26079C1.32438 8.39251 2.78122 10.1659 4.7135 10.5696C4.36019 10.6694 3.98508 10.7238 3.60124 10.7238C3.33081 10.7238 3.06474 10.6966 2.80739 10.6422C3.34389 12.3884 4.90542 13.6583 6.75482 13.6946C5.31106 14.8739 3.48783 15.5769 1.50758 15.5769C1.16736 15.5769 0.831497 15.5542 0.5 15.5134C2.36249 16.7743 4.58264 17.5 6.96419 17.5C14.7413 17.5 18.9897 10.8009 18.9897 4.99082C18.9897 4.80033 18.9853 4.60983 18.9766 4.42387C19.801 3.8025 20.5163 3.03145 21.0833 2.14701Z" fill="#F9F8F8"/>
</svg>
